<?xml version="1.0" encoding="UTF-8"?>
<!DOCTYPE svg PUBLIC "-//W3C//DTD SVG 1.1//EN" "http://www.w3.org/Graphics/SVG/1.1/DTD/svg11.dtd">
<!-- Creator: CorelDRAW 2019 (64-Bit) -->
<svg xmlns="http://www.w3.org/2000/svg" xml:space="preserve" width="210mm" height="297mm" version="1.1" shape-rendering="geometricPrecision" text-rendering="geometricPrecision" image-rendering="optimizeQuality" fill-rule="evenodd" clip-rule="evenodd"
viewBox="25 125 160 50"
 xmlns:xlink="http://www.w3.org/1999/xlink"
 >
 <defs>
    <radialGradient id="id0" gradientUnits="userSpaceOnUse" gradientTransform="matrix(5.52143 -1.18568 1.18564 5.5216 -375 -542)" cx="48.2353" cy="132.4421" r="73.7055" fx="48.2353" fy="132.4421">
     <stop offset="0" stop-opacity="1" stop-color="#8DA6D6"/>
     <stop offset="1" stop-opacity="1" stop-color="#0033AB"/>
    </radialGradient>
    <radialGradient id="id1" gradientUnits="userSpaceOnUse" gradientTransform="matrix(5.59058 -0 -0 5.59072 -228 -608)" cx="49.5807" cy="132.4376" r="74.4283" fx="49.5807" fy="132.4376">
     <stop offset="0" stop-opacity="1" stop-color="#8DA6D6"/>
     <stop offset="1" stop-opacity="1" stop-color="#0033AB"/>
    </radialGradient>
 </defs>
 <g id="Livello_x0020_1">
  <metadata id="CorelCorpID_0Corel-Layer"/>
  <g id="_2280383013088">
   <polygon fill="none" points="31.3231,142.027 41.9141,135.407 33.4821,135.407 33.4821,136.1294 33.8429,136.1294 33.8429,136.6921 32.8689,136.6912 32.8689,139.042 32.5523,139.7063 32.2076,139.0454 32.2076,136.6912 31.8228,136.6945 31.8228,135.407 31.3191,135.407 31.3191,133.9531 31.3191,128.9126 50.9027,128.9126 52.2778,128.9126 52.2678,135.4444 41.7955,142.0057 52.2782,142.0057 52.2782,143.4596 52.2782,148.5001 32.4774,148.5001 31.3468,148.5001 31.3258,148.5001 31.3191,148.5001 "/>
   <polygon fill="url(#id0)" points="31.3974,142.0271 41.9883,135.4069 33.5564,135.4069 33.5564,136.1293 33.9172,136.1293 33.9172,136.6922 32.9431,136.6912 32.9431,139.042 32.6264,139.7062 32.2817,139.0453 32.2817,136.6912 31.8969,136.6945 31.8969,135.4069 31.3934,135.4069 31.3934,128.9126 50.977,128.9126 44.4495,135.4069 31.3999,148.5211 "/>
   <polygon fill="url(#id1)" points="32.5515,148.5001 52.3523,148.5001 52.3523,142.0057 41.8696,142.0057 52.3421,135.4445 52.3529,128.9116 "/>
   <polygon fill="#0033AB" points="31.3736,128.9126 52.3325,128.9126 37.7236,143.4595 52.3325,143.4595 52.3325,148.5001 31.3736,148.5001 45.894,133.9531 31.3736,133.9531 "/>
  </g>
  <path fill="black" fill-rule="nonzero" d="M55.9692 159.1314c-0.1838,0.3351 -0.4357,0.599 -0.756,0.7916 -0.32,0.1926 -0.6759,0.289 -1.0672,0.289 -0.3855,0 -0.738,-0.0964 -1.0583,-0.289 -0.3203,-0.1926 -0.5708,-0.4565 -0.7514,-0.7916 -0.181,-0.3348 -0.2713,-0.707 -0.2713,-1.1162 0,-0.4089 0.0903,-0.7782 0.2713,-1.107 0.1806,-0.3292 0.4311,-0.5899 0.7514,-0.7828 0.3203,-0.1926 0.6728,-0.2889 1.0583,-0.2889 0.3913,0 0.7472,0.0963 1.0672,0.2889 0.3203,0.1929 0.5722,0.4536 0.756,0.7828 0.1838,0.3288 0.2755,0.6981 0.2755,1.107 0,0.4092 -0.0917,0.7814 -0.2755,1.1162zm-0.2088 -3.8908c-0.4833,-0.2787 -1.0217,-0.418 -1.6144,-0.418 -0.587,0 -1.1204,0.1393 -1.6009,0.418 -0.4801,0.2787 -0.8597,0.6625 -1.138,1.1518 -0.2791,0.489 -0.4181,1.0301 -0.4181,1.6228 0,0.599 0.139,1.143 0.4181,1.632 0.2783,0.4893 0.6579,0.8745 1.138,1.156 0.4805,0.2819 1.0139,0.4226 1.6009,0.4226 0.5927,0 1.1311,-0.1407 1.6144,-0.4226 0.4829,-0.2815 0.8625,-0.6667 1.138,-1.156 0.2759,-0.489 0.4138,-1.033 0.4138,-1.632 0,-0.5927 -0.1379,-1.1338 -0.4138,-1.6228 -0.2755,-0.4893 -0.6551,-0.8731 -1.138,-1.1518z"/>
  <polygon fill="black" fill-rule="nonzero" points="63.6067,159.1269 60.6631,154.9116 59.7557,154.9116 59.7557,161.1367 60.7964,161.1367 60.7964,156.9213 63.7488,161.1367 64.6562,161.1367 64.6562,154.9116 63.6067,154.9116 "/>
  <polygon fill="black" fill-rule="nonzero" points="67.3366,161.1368 68.377,161.1368 68.377,154.9113 67.3366,154.9113 "/>
  <polygon fill="black" fill-rule="nonzero" points="73.3359,159.4737 71.664,154.9116 70.5521,154.9116 72.9002,161.1367 73.7627,161.1367 76.1104,154.9116 75.0077,154.9116 "/>
  <polygon fill="black" fill-rule="nonzero" points="78.2813,161.1368 81.9541,161.1368 81.9541,160.1406 79.3217,160.1406 79.3217,158.3711 81.6698,158.3711 81.6698,157.3748 79.3217,157.3748 79.3217,155.9076 81.9541,155.9076 81.9541,154.9114 78.2813,154.9114 "/>
  <path fill="black" fill-rule="nonzero" d="M85.2438 155.9164l1.1917 0c0.1838,0 0.3482,0.0385 0.4935,0.1157 0.1454,0.0769 0.2607,0.1852 0.3468,0.3246 0.0861,0.1393 0.1291,0.2921 0.1291,0.4579 0,0.1722 -0.043,0.3291 -0.1291,0.4713 -0.0861,0.1425 -0.2014,0.2522 -0.3468,0.3292 -0.1453,0.0772 -0.3097,0.1157 -0.4935,0.1157l-1.1917 0 0 -1.8144zm2.299 2.4857c0.2876,-0.157 0.5112,-0.3764 0.6714,-0.6579 0.1601,-0.2815 0.2402,-0.6065 0.2402,-0.9741 0,-0.3379 -0.0861,-0.6505 -0.2579,-0.938 -0.1721,-0.2875 -0.4046,-0.5129 -0.6981,-0.6759 -0.2935,-0.163 -0.6124,-0.2448 -0.956,-0.2448l-2.3389 0 0 6.2254 1.0403 0 0 -2.499 0.919 0 1.5356 2.499 1.2718 0 -1.7008 -2.6141c0.0946,-0.0335 0.186,-0.073 0.2734,-0.1206z"/>
  <path fill="black" fill-rule="nonzero" d="M94.5817 157.824c-0.2699,-0.1157 -0.6153,-0.2296 -1.0361,-0.3422 -0.2904,-0.0772 -0.52,-0.1481 -0.6894,-0.2134 -0.1686,-0.0653 -0.3111,-0.157 -0.4265,-0.2759 -0.1157,-0.1185 -0.1735,-0.2695 -0.1735,-0.4536 0,-0.1362 0.0412,-0.2593 0.1245,-0.369 0.0829,-0.1098 0.1969,-0.1941 0.3422,-0.2533 0.1453,-0.0593 0.3129,-0.0893 0.5027,-0.0893 0.2847,0 0.569,0.0625 0.8537,0.187 0.2847,0.1245 0.5306,0.2935 0.738,0.5069l0.6047 -0.8092c-0.2134,-0.2551 -0.52,-0.4671 -0.9204,-0.6361 -0.4,-0.1686 -0.799,-0.2533 -1.1959,-0.2533 -0.4036,0 -0.7634,0.0787 -1.0806,0.2357 -0.3171,0.1569 -0.5665,0.3707 -0.7472,0.6403 -0.1809,0.2698 -0.2712,0.5736 -0.2712,0.9115 0,0.4093 0.0977,0.7338 0.2935,0.9737 0.1958,0.2402 0.4282,0.418 0.6981,0.5337 0.2699,0.1158 0.6121,0.2269 1.0273,0.3334 0.2903,0.0773 0.52,0.1468 0.6893,0.2092 0.1687,0.0621 0.3094,0.1482 0.4223,0.2579 0.1125,0.1097 0.169,0.2533 0.169,0.4311 0,0.1722 -0.049,0.3249 -0.1468,0.4583 -0.0977,0.1333 -0.2342,0.2356 -0.4092,0.3069 -0.175,0.0709 -0.375,0.1065 -0.6001,0.1065 -0.3559,0 -0.6777,-0.0723 -0.9652,-0.2177 -0.2875,-0.1453 -0.5644,-0.3485 -0.8315,-0.6092l-0.6667 0.7645c0.1894,0.2078 0.4149,0.3916 0.6756,0.5517 0.261,0.1598 0.5471,0.2861 0.8583,0.3778 0.3115,0.0918 0.6212,0.138 0.9295,0.138 0.4505,0 0.8432,-0.0861 1.1783,-0.2579 0.3348,-0.1722 0.5927,-0.4032 0.7737,-0.6939 0.1809,-0.2904 0.2712,-0.6015 0.2712,-0.9338 0,-0.4029 -0.0977,-0.7275 -0.2935,-0.9737 -0.1958,-0.2459 -0.4282,-0.4269 -0.6981,-0.5426z"/>
  <polygon fill="black" fill-rule="nonzero" points="101.5948,155.9075 101.5948,154.9113 97.9221,154.9113 97.9221,161.1368 101.5948,161.1368 101.5948,160.1409 98.9624,160.1409 98.9624,158.371 101.3101,158.371 101.3101,157.3751 98.9624,157.3751 98.9624,155.9075 "/>
  <path fill="#0038A8" stroke="#0038A8" stroke-width="0.0762" stroke-miterlimit="10" d="M67.1763 141.0116l-2.1714 -7.0584 -2.1579 7.0584 4.3293 0zm1.271 4.2471l-6.9123 0 -0.9507 3.2413 -6.1994 0 7.3787 -19.6353 6.6149 0 7.3833 19.6353 -6.35 0 -0.9645 -3.2413zm9.2527 -16.394l6.0713 0 0 14.7983 9.4675 0 0 4.837 -15.5388 0 0 -19.6353zm18.2958 0l6.0709 0 0 14.7983 9.4679 0 0 4.837 -15.5388 0 0 -19.6353zm18.5377 0l6.0801 0 0 19.6349 -6.0801 0 0 -19.6349z"/>
  <g id="_2280383009536">
   <path fill="#0038A8" d="M153.1805 139.1706c0.0766,0.3289 0.2139,0.4852 0.2401,0.8005 0.7414,-0.0617 2.64,-1.0005 3.7627,1.2 0.1961,0.3843 0.3968,0.6799 0.571,1.11 0.9284,2.2929 1.4055,3.8231 2.1997,6.2048l3.3921 10.0553 1.3607 0 3.7085 -7.0173c0.214,-0.4316 0.4088,-0.7342 0.6139,-1.1471 0.2112,-0.425 0.4376,-0.7903 0.6409,-1.2001l2.4541 -4.7499c0.4046,-0.8078 0.7694,-1.6266 1.114,-2.488 2.6091,-6.5226 -2.4567,-5.0827 -3.1042,-4.545 -1.4283,1.1863 0.0158,4.197 0.0158,6.0191 0,1.8149 -1.5086,3.9899 -2.0924,5.4318 -0.3241,0.8006 -0.8343,1.7022 -1.2428,2.5192 -0.2641,0.5283 -1.0745,2.3642 -1.3074,2.5347 -0.1396,-0.5993 -0.4957,-1.598 -0.7203,-2.1611 -0.6712,-1.6828 -1.4935,-4.5937 -2.2075,-6.4373l-2.565 -7.5205c-0.3342,-1.005 -0.1536,-0.9303 -1.0707,-0.9303 -0.263,0 -1.2043,0.4484 -1.4514,0.5497l-4.3118 1.7715z"/>
   <path fill="#5E35B1" d="M134.5002 158.7406c3.7619,0 5.787,-1.891 7.3508,-5.0841 0.4362,-0.8907 3.2384,-7.885 4.3303,-8.2926 0.0026,1.8514 2.0005,10.5516 3.449,12.0001 1.409,1.4091 3.9864,1.7544 5.6067,0.6352 1.5017,-1.0372 2.0092,-4.2476 1.0977,-5.8323l-0.0151 -0.099c-0.0613,-0.0266 -1.3708,3.0505 -3.5497,3.1155 -2.0025,0.0597 -2.8146,-1.9732 -3.183,-3.6165 -0.8106,-3.6163 -1.594,-7.2805 -2.5015,-10.8753 -0.7426,-2.9415 -1.1905,-7.8644 -3.4942,-9.8825 -2.9571,-2.5905 -8.039,-0.9772 -7.9512,3.049 0.0539,2.4687 2.245,4.3408 2.6167,2.0721 0.0276,-0.1684 -0.6295,-4.6122 3.0643,-3.4239 1.5008,0.4828 2.5426,2.3882 3.0038,3.7865 0.8744,2.6498 1.031,2.7665 0.0029,5.3332 -1.5926,3.9759 -4.6686,9.3745 -7.1136,13.046 -0.6871,1.032 -2.3398,3.0694 -2.7139,4.0686z"/>
  </g>
 </g>
</svg>
