<svg xmlns:xlink="http://www.w3.org/1999/xlink" viewBox="57.42372881355932 127.59120000000001 91.94915254237289 35.046" style="max-height: 500px" version="1.1" xml:space="preserve" xmlns="http://www.w3.org/2000/svg" width="91.94915254237289" height="35.046">
 <defs>
  <style type="text/css">
   
    .str0 {stroke:#0038A8;stroke-width:0.0762;stroke-miterlimit:10}
    .fil0 {fill:none}
    .fil3 {fill:#0033AB}
    .fil5 {fill:#0038A8}
    .fil4 {fill:black;fill-rule:nonzero}
    .fil2 {fill:url(#id0)}
    .fil1 {fill:url(#id1)}
   
  </style>
  <radialGradient fy="132.4376" fx="76.8807" r="74.4283" cy="132.4376" cx="76.8807" gradientTransform="matrix(5.59058 -0 -0 5.59072 -353 -608)" gradientUnits="userSpaceOnUse" id="id0">
   <stop style="stop-opacity:1; stop-color:#8DA6D6" offset="0"/>
   <stop style="stop-opacity:1; stop-color:#0033AB" offset="1"/>
  </radialGradient>
  <radialGradient fy="132.4421" fx="75.5353" r="73.7055" cy="132.4421" cx="75.5353" xlink:href="#id0" gradientTransform="matrix(5.52143 -1.18568 1.18564 5.5216 -499 -509)" gradientUnits="userSpaceOnUse" id="id1">
  </radialGradient>
 </defs>
 <g id="Livello_x0020_1">
  <metadata id="CorelCorpID_0Corel-Layer"/>
  <g id="_1771040305120">
   <polygon points="58.6231,142.027 69.2141,135.407 60.7821,135.407 60.7821,136.1294 61.1429,136.1294 61.1429,136.6921 60.1689,136.6912 60.1689,139.042 59.8523,139.7063 59.5076,139.0454 59.5076,136.6912 59.1228,136.6945 59.1228,135.407 58.6191,135.407 58.6191,133.9531 58.6191,128.9126 78.2027,128.9126 79.5778,128.9126 79.5678,135.4444 69.0955,142.0057 79.5782,142.0057 79.5782,143.4596 79.5782,148.5001 59.7774,148.5001 58.6468,148.5001 58.6258,148.5001 58.6191,148.5001" class="fil0"/>
   <polygon points="58.6974,142.0271 69.2883,135.4069 60.8564,135.4069 60.8564,136.1293 61.2172,136.1293 61.2172,136.6922 60.2431,136.6912 60.2431,139.042 59.9264,139.7062 59.5817,139.0453 59.5817,136.6912 59.1969,136.6945 59.1969,135.4069 58.6934,135.4069 58.6934,128.9126 78.277,128.9126 71.7495,135.4069 58.6999,148.5211" class="fil1"/>
   <polygon points="59.8515,148.5001 79.6523,148.5001 79.6523,142.0057 69.1696,142.0057 79.6421,135.4445 79.6529,128.9116" class="fil2"/>
   <polygon points="58.6736,128.9126 79.6325,128.9126 65.0236,143.4595 79.6325,143.4595 79.6325,148.5001 58.6736,148.5001 73.194,133.9531 58.6736,133.9531" class="fil3"/>
  </g>
  <path d="M83.2692 159.1314c-0.1838,0.3351 -0.4357,0.599 -0.756,0.7916 -0.32,0.1926 -0.6759,0.289 -1.0672,0.289 -0.3855,0 -0.738,-0.0964 -1.0583,-0.289 -0.3203,-0.1926 -0.5708,-0.4565 -0.7514,-0.7916 -0.181,-0.3348 -0.2713,-0.707 -0.2713,-1.1162 0,-0.4089 0.0903,-0.7782 0.2713,-1.107 0.1806,-0.3292 0.4311,-0.5899 0.7514,-0.7828 0.3203,-0.1926 0.6728,-0.2889 1.0583,-0.2889 0.3913,0 0.7472,0.0963 1.0672,0.2889 0.3203,0.1929 0.5722,0.4536 0.756,0.7828 0.1838,0.3288 0.2755,0.6981 0.2755,1.107 0,0.4092 -0.0917,0.7814 -0.2755,1.1162zm-0.2088 -3.8908c-0.4833,-0.2787 -1.0217,-0.418 -1.6144,-0.418 -0.587,0 -1.1204,0.1393 -1.6009,0.418 -0.4801,0.2787 -0.8597,0.6625 -1.138,1.1518 -0.2791,0.489 -0.4181,1.0301 -0.4181,1.6228 0,0.599 0.139,1.143 0.4181,1.632 0.2783,0.4893 0.6579,0.8745 1.138,1.156 0.4805,0.2819 1.0139,0.4226 1.6009,0.4226 0.5927,0 1.1311,-0.1407 1.6144,-0.4226 0.4829,-0.2815 0.8625,-0.6667 1.138,-1.156 0.2759,-0.489 0.4138,-1.033 0.4138,-1.632 0,-0.5927 -0.1379,-1.1338 -0.4138,-1.6228 -0.2755,-0.4893 -0.6551,-0.8731 -1.138,-1.1518z" class="fil4"/>
  <polygon points="90.9067,159.1269 87.9631,154.9116 87.0557,154.9116 87.0557,161.1367 88.0964,161.1367 88.0964,156.9213 91.0488,161.1367 91.9562,161.1367 91.9562,154.9116 90.9067,154.9116" class="fil4"/>
  <polygon points="94.6366,161.1368 95.677,161.1368 95.677,154.9113 94.6366,154.9113" class="fil4"/>
  <polygon points="100.6359,159.4737 98.964,154.9116 97.8521,154.9116 100.2002,161.1367 101.0627,161.1367 103.4104,154.9116 102.3077,154.9116" class="fil4"/>
  <polygon points="105.5813,161.1368 109.2541,161.1368 109.2541,160.1406 106.6217,160.1406 106.6217,158.3711 108.9698,158.3711 108.9698,157.3748 106.6217,157.3748 106.6217,155.9076 109.2541,155.9076 109.2541,154.9114 105.5813,154.9114" class="fil4"/>
  <path d="M112.5438 155.9164l1.1917 0c0.1838,0 0.3482,0.0385 0.4935,0.1157 0.1454,0.0769 0.2607,0.1852 0.3468,0.3246 0.0861,0.1393 0.1291,0.2921 0.1291,0.4579 0,0.1722 -0.043,0.3291 -0.1291,0.4713 -0.0861,0.1425 -0.2014,0.2522 -0.3468,0.3292 -0.1453,0.0772 -0.3097,0.1157 -0.4935,0.1157l-1.1917 0 0 -1.8144zm2.299 2.4857c0.2876,-0.157 0.5112,-0.3764 0.6714,-0.6579 0.1601,-0.2815 0.2402,-0.6065 0.2402,-0.9741 0,-0.3379 -0.0861,-0.6505 -0.2579,-0.938 -0.1721,-0.2875 -0.4046,-0.5129 -0.6981,-0.6759 -0.2935,-0.163 -0.6124,-0.2448 -0.956,-0.2448l-2.3389 0 0 6.2254 1.0403 0 0 -2.499 0.919 0 1.5356 2.499 1.2718 0 -1.7008 -2.6141c0.0946,-0.0335 0.186,-0.073 0.2734,-0.1206z" class="fil4"/>
  <path d="M121.8817 157.824c-0.2699,-0.1157 -0.6153,-0.2296 -1.0361,-0.3422 -0.2904,-0.0772 -0.52,-0.1481 -0.6894,-0.2134 -0.1686,-0.0653 -0.3111,-0.157 -0.4265,-0.2759 -0.1157,-0.1185 -0.1735,-0.2695 -0.1735,-0.4536 0,-0.1362 0.0412,-0.2593 0.1245,-0.369 0.0829,-0.1098 0.1969,-0.1941 0.3422,-0.2533 0.1453,-0.0593 0.3129,-0.0893 0.5027,-0.0893 0.2847,0 0.569,0.0625 0.8537,0.187 0.2847,0.1245 0.5306,0.2935 0.738,0.5069l0.6047 -0.8092c-0.2134,-0.2551 -0.52,-0.4671 -0.9204,-0.6361 -0.4,-0.1686 -0.799,-0.2533 -1.1959,-0.2533 -0.4036,0 -0.7634,0.0787 -1.0806,0.2357 -0.3171,0.1569 -0.5665,0.3707 -0.7472,0.6403 -0.1809,0.2698 -0.2712,0.5736 -0.2712,0.9115 0,0.4093 0.0977,0.7338 0.2935,0.9737 0.1958,0.2402 0.4282,0.418 0.6981,0.5337 0.2699,0.1158 0.6121,0.2269 1.0273,0.3334 0.2903,0.0773 0.52,0.1468 0.6893,0.2092 0.1687,0.0621 0.3094,0.1482 0.4223,0.2579 0.1125,0.1097 0.169,0.2533 0.169,0.4311 0,0.1722 -0.049,0.3249 -0.1468,0.4583 -0.0977,0.1333 -0.2342,0.2356 -0.4092,0.3069 -0.175,0.0709 -0.375,0.1065 -0.6001,0.1065 -0.3559,0 -0.6777,-0.0723 -0.9652,-0.2177 -0.2875,-0.1453 -0.5644,-0.3485 -0.8315,-0.6092l-0.6667 0.7645c0.1894,0.2078 0.4149,0.3916 0.6756,0.5517 0.261,0.1598 0.5471,0.2861 0.8583,0.3778 0.3115,0.0918 0.6212,0.138 0.9295,0.138 0.4505,0 0.8432,-0.0861 1.1783,-0.2579 0.3348,-0.1722 0.5927,-0.4032 0.7737,-0.6939 0.1809,-0.2904 0.2712,-0.6015 0.2712,-0.9338 0,-0.4029 -0.0977,-0.7275 -0.2935,-0.9737 -0.1958,-0.2459 -0.4282,-0.4269 -0.6981,-0.5426z" class="fil4"/>
  <polygon points="128.8948,155.9075 128.8948,154.9113 125.2221,154.9113 125.2221,161.1368 128.8948,161.1368 128.8948,160.1409 126.2624,160.1409 126.2624,158.371 128.6101,158.371 128.6101,157.3751 126.2624,157.3751 126.2624,155.9075" class="fil4"/>
  <path d="M94.4763 141.0116l-2.1714 -7.0584 -2.1579 7.0584 4.3293 0zm1.271 4.2471l-6.9123 0 -0.9507 3.2413 -6.1994 0 7.3787 -19.6353 6.6149 0 7.3833 19.6353 -6.35 0 -0.9645 -3.2413zm9.2527 -16.394l6.0713 0 0 14.7983 9.4675 0 0 4.837 -15.5388 0 0 -19.6353zm18.2958 0l6.0709 0 0 14.7983 9.4679 0 0 4.837 -15.5388 0 0 -19.6353zm18.5377 0l6.0801 0 0 19.6349 -6.0801 0 0 -19.6349z" class="fil5 str0"/>
 </g>
</svg>